# xmcd
#
# Track frame offsets: 
#        150
#        37318
#        72972
#        97467
#        155086
#        201334
#        260702
#
# Disc length: 3651 seconds
#
# Revision: 0
# Processed by: cddbd v1.5.2PL0 Copyright (c) Steve Scherf et al.
# Submitted via: ExactAudioCopy v0.99pb5
#
DISCID=740e4107
DTITLE=Henrik Freischlader - Tour 2010 Live_02
DYEAR=2010
DGENRE=Rock
TTITLE0=Breakout
TTITLE1=Drum Solo Hardy Fischotter
TTITLE2=The Wrong Way
TTITLE3=Cry Again
TTITLE4=Tired Of Beggin'
TTITLE5=Foxy Lady
TTITLE6=Mo's Shuffle
EXTD=
EXTT0=
EXTT1=
EXTT2=
EXTT3=
EXTT4=
EXTT5=
EXTT6=
PLAYORDER=
